# xmcd
#
# Track frame offsets: 
#        150
#        18894
#        44268
#        63718
#        92899
#        110577
#        126716
#        143638
#        160129
#        177121
#        197042
#        220874
#        238655
#        257556
#        272051
#        289897
#        307839
#        329249
#
# Disc length: 4755 seconds
#
# Revision: 0
# Processed by: cddbd v1.5.2PL0 Copyright (c) Steve Scherf et al.
# Submitted via: ExactAudioCopy v1.3
#
DISCID=14129112
DTITLE=Various Artist - Akella Presents - vol.205 - Blues-Rock  CD1
DYEAR=2019
DGENRE=Blues
TTITLE0=Scotty Bratcher - Tables Turn And Bridges Burn
TTITLE1=The Chitlins - In the City
TTITLE2=Automag - Alcohol of Fame
TTITLE3=The Alabama Lovesnakes - The Matters Of The Heart
TTITLE4=Jeff Liberman - Save Your Money
TTITLE5=Juniper Inc. - Ride The Sky
TTITLE6=Little John Chrisley - Supernaturally
TTITLE7=Cirkus Prutz - Mojo
TTITLE8=Miss Kaytie - Pull Me Down
TTITLE9=Lou Dibello - Walk Through The Fire
TTITLE10=Alex Beaird Band - Beneath the Rose
TTITLE11=Eric Jerardi - Deaf Lead the Blind
TTITLE12=Ruud Cooty - Red, White And Blues
TTITLE13=Killer - Sugardaddy Boogie
TTITLE14=Jay Hooks - Ridin' The Blind
TTITLE15=Nick Harless - Clarksdale Mississippi
TTITLE16=Tommy Z - My Eyes (Keep Me in Trouble)
TTITLE17=The Mothercrow - Ashes
EXTD=
EXTT0=
EXTT1=
EXTT2=
EXTT3=
EXTT4=
EXTT5=
EXTT6=
EXTT7=
EXTT8=
EXTT9=
EXTT10=
EXTT11=
EXTT12=
EXTT13=
EXTT14=
EXTT15=
EXTT16=
EXTT17=
PLAYORDER=
